# xmcd
#
# Track frame offsets:
#	150
#	10784
#	22287
#	34375
#	48619
#	62304
#	74287
#	87010
#	97523
#	110989
#	124601
#	135145
#
# Disc length: 2065 seconds
#
# Revision: 1
# Processed by: cddbd v1.5.2PL0 Copyright (c) Steve Scherf et al.
# Submitted via: audiograbber 1.83.01
#
DISCID=95080f0c
DTITLE=Z3 - Die 3 Zillertaler - A schneidige Musig
DYEAR=2010
DGENRE=volkstümlich
TTITLE0=Mir san 3 Zillertaler
TTITLE1=Wo hent denn grod die Tonza
TTITLE2=A schneidige Musig
TTITLE3=Lass die Nacht niemals enden
TTITLE4=Mir san lustige leit
TTITLE5=Dandl bisch gschamig
TTITLE6=Des Lächeln von dir
TTITLE7=Hatt i, war i, will i
TTITLE8=Des Zillertal im Herzen
TTITLE9=Dafür lieb ich dich
TTITLE10=Gerlosberg Boarischer
TTITLE11=Feel
EXTD=
EXTT0=
EXTT1=
EXTT2=
EXTT3=
EXTT4=
EXTT5=
EXTT6=
EXTT7=
EXTT8=
EXTT9=
EXTT10=
EXTT11=
PLAYORDER=
